<svg width="22" height="24" viewBox="0 0 22 24" fill="none" xmlns="http://www.w3.org/2000/svg">
<path d="M20.3516 21.7969V13.125H21.8516V10.9219H20.1298L11.3516 5.08528V3.375H14.3516V0.421875H11.3516V0H10.6484V5.08528L1.91698 10.9219H0.148438V13.125H1.64844V21.7969H0.148438V24H21.8516V21.7969H20.3516ZM19.6484 21.7969H18.1016V13.125H19.6484V21.7969ZM6.89844 13.125V21H7.60156V13.125H9.14844V21.7969H4.60156V13.125H6.89844ZM9.85156 13.125H12.1484V21.7969H9.85156V13.125ZM12.8516 13.125H14.3984V21.7969H12.8516V13.125ZM15.1016 13.125H17.3984V21.7969H15.1016V13.125ZM13.6484 1.125V2.67188H11.3516V1.125H13.6484ZM11.0234 5.69597L18.8623 10.9219H3.18453L11.0234 5.69597ZM0.851562 11.625H21.1484V12.4219H0.851562V11.625ZM2.35156 13.125H3.89844V21.7969H2.35156V13.125ZM21.1484 23.2969H0.851562V22.5H21.1484V23.2969Z" fill="#383874"/>
</svg>
